<?xml version="1.0" encoding="UTF-8"?>
<svg version="1.1" xmlns="http://www.w3.org/2000/svg" width="158" height="164">
<path d="M0 0 C9.16828301 4.96861789 15.30675712 11.71940018 19.296875 21.4453125 C22.13320745 31.17550853 20.82642982 42.0101829 16.234375 50.9375 C12.6368153 56.99654791 7.65302544 61.26642615 2.359375 65.8125 C-6.58578106 73.60065711 -11.09600318 82.46104718 -15.578125 93.3125 C-17.83385511 91.05676989 -18.5443358 89.24692866 -19.765625 86.3125 C-23.91653227 77.13994916 -28.80618326 70.74463177 -36.578125 64.4375 C-44.49719915 57.97405385 -50.73918516 50.10204144 -52.4296875 39.71484375 C-53.16098782 27.87932535 -51.16127043 17.15731353 -43.453125 7.9375 C-32.38460841 -3.58915056 -14.5899464 -6.36652207 0 0 Z M-30.953125 19.625 C-34.42376136 25.3648986 -36.66645146 30.52029388 -35.578125 37.3125 C-33.48741864 45.57333977 -25.93215555 51.18438296 -19.578125 56.3125 C-17.36435023 57.60069655 -17.36435023 57.60069655 -15.578125 58.3125 C-13.48967098 56.58922364 -11.40743916 54.85924596 -9.328125 53.125 C-8.74160156 52.64224609 -8.15507813 52.15949219 -7.55078125 51.66210938 C-1.38486408 46.50075174 2.97073189 41.82393109 3.796875 33.5625 C3.70284712 28.63543912 1.65542728 24.62006512 -0.578125 20.3125 C-1.238125 20.3125 -1.898125 20.3125 -2.578125 20.3125 C-2.578125 19.6525 -2.578125 18.9925 -2.578125 18.3125 C-3.67125 17.673125 -4.764375 17.03375 -5.890625 16.375 C-6.50550781 16.01535156 -7.12039062 15.65570313 -7.75390625 15.28515625 C-15.78888164 11.00098308 -24.68508554 13.52190895 -30.953125 19.625 Z " fill="#FFFFFF" transform="translate(94.578125,32.6875)"/>
<path d="M0 0 C5.46542807 -0.2977276 9.77859009 0.63337559 14.8125 2.625 C15.86679199 3.03540527 15.86679199 3.03540527 16.94238281 3.45410156 C25.47274219 6.87016732 32.5386805 11.45210223 39.625 17.25 C40.15899414 17.68666992 40.69298828 18.12333984 41.24316406 18.57324219 C42.53721456 19.66794586 43.77440807 20.8291596 45 22 C45 22.66 45 23.32 45 24 C45.66 24 46.32 24 47 24 C62.68774617 42.27541564 66.14421049 65.74286241 65 89 C63.24868283 110.86185302 55.38316823 132.65338657 38.3515625 147.2734375 C25.9203665 157.09440862 11.13401278 163.94905958 -5 163 C-4.24581105 149.42459887 4.54921819 138.72570573 14.328125 129.8984375 C16.50520764 128.18339758 18.71918968 126.57429669 21 125 C37.74673058 113.37691504 47.4626034 99.28338739 51.58203125 79.15625 C54.0644915 60.410195 50.85060072 40.74364344 39.703125 25.1484375 C30.86719997 14.0022018 19.76324781 7.16616266 6.3046875 2.7890625 C4.08116128 2.02778742 2.07409472 1.09917462 0 0 Z " fill="#FFFFFF" transform="translate(92,0)"/>
<path d="M0 0 C-2.93690603 1.95793736 -5.08709385 2.70418027 -8.4375 3.6875 C-24.4359953 8.93670473 -36.95600588 19.20191727 -45 34 C-53.00194471 51.46989457 -54.66794185 72.6073216 -48.30078125 90.8984375 C-44.88944791 99.03236744 -40.87381994 106.41420189 -35 113 C-35 113.66 -35 114.32 -35 115 C-34.34 115 -33.68 115 -33 115 C-31.90817917 116.12704086 -30.8181519 117.25584684 -29.734375 118.390625 C-27.56607909 120.40264733 -25.22858166 122.04372764 -22.8125 123.75 C-9.35646902 133.43111759 2.11996335 144.34026221 6 161 C6 161.66 6 162.32 6 163 C-9.1335001 164.06200001 -24.04560046 157.86863579 -35.91796875 148.76171875 C-38.39138403 146.59514167 -40.71539097 144.36381992 -43 142 C-43.64453125 141.34128906 -44.2890625 140.68257812 -44.953125 140.00390625 C-51.62784411 132.79230756 -55.90518521 124.86340424 -59.25 115.6875 C-59.4962915 115.02500244 -59.74258301 114.36250488 -59.99633789 113.67993164 C-63.88105097 102.44982326 -64.34266174 90.8436762 -64.3125 79.0625 C-64.32861328 77.80759766 -64.34472656 76.55269531 -64.36132812 75.25976562 C-64.37258633 53.43011184 -57.21018097 35.55833623 -42.1875 19.75 C-31.54901149 9.50072449 -15.15556623 -0.60622265 0 0 Z " fill="#FFFFFF" transform="translate(65,0)"/>
</svg>
